<svg xmlns="http://www.w3.org/2000/svg" viewBox="0 0 100 100">
  <defs>
    <linearGradient id="grad" x1="0%" y1="0%" x2="100%" y2="100%">
      <stop offset="0%" style="stop-color:#4F46E5;stop-opacity:1" />
      <stop offset="100%" style="stop-color:#9333EA;stop-opacity:1" />
    </linearGradient>
    <filter id="shadow" x="-20%" y="-20%" width="140%" height="140%">
      <feDropShadow dx="2" dy="4" stdDeviation="3" flood-opacity="0.3"/>
    </filter>
  </defs>
  
  <!-- Background with shadow and rotation -->
  <rect x="10" y="10" width="80" height="80" rx="20" fill="url(#grad)" transform="rotate(3 50 50)" filter="url(#shadow)" />
  
  <!-- Brain Icon -->
  <g transform="translate(26, 26) scale(2.0)" stroke="white" stroke-width="2" fill="none" stroke-linecap="round" stroke-linejoin="round">
    <path d="M9.5 2A2.5 2.5 0 0 1 12 4.5v15a2.5 2.5 0 0 1-4.96.44 2.5 2.5 0 0 1-2.96-3.08 3 3 0 0 1-.34-5.58 2.5 2.5 0 0 1 1.32-4.24 2.5 2.5 0 0 1 1.98-3A2.5 2.5 0 0 1 9.5 2Z"/>
    <path d="M14.5 2A2.5 2.5 0 0 0 12 4.5v15a2.5 2.5 0 0 0 4.96.44 2.5 2.5 0 0 0 2.96-3.08 3 3 0 0 0 .34-5.58 2.5 2.5 0 0 0-1.32-4.24 2.5 2.5 0 0 0-1.98-3A2.5 2.5 0 0 0 14.5 2Z"/>
  </g>
  
  <!-- Sparkle (Top Right) -->
  <path d="M85 5 L87 12 L94 14 L87 16 L85 23 L83 16 L76 14 L83 12 Z" fill="#FACC15" stroke="#FACC15" stroke-width="1" />
</svg>